<svg width="203" height="15" viewBox="0 0 203 15" fill="none" xmlns="http://www.w3.org/2000/svg">
<path d="M197.526 1.23264C194.203 4.29896 193.054 7.04695 185.936 8.54568C177.173 10.392 168.452 5.98673 164.134 2.37471C162.644 1.12805 159.03 0.888328 157.639 2.37471C151.539 8.88999 138.031 7.29901 132.267 1.01111C130.85 -0.53569 126.058 -0.259588 125.469 1.51004C122.23 11.2573 107.688 12.2889 97.9482 5.22405C99.0112 3.3219 93.4659 2.02715 91.954 3.88903C83.7783 13.9605 67.8166 12.8353 58.5524 3.84746C56.9445 2.28766 53.3425 2.83467 52.3038 4.30611C44.7746 14.9759 33.0477 9.90019 26.4671 2.55597C25.1855 1.1248 21.5302 1.62047 20.7575 2.97498C17.1613 9.28302 11.2365 10.4608 1.25513 12.0927C-0.624545 12.4007 -0.334207 14.2327 1.73286 14.078C13.1694 13.2218 19.4157 12.0791 24.0901 7.29576C33.6932 15.7177 47.0997 17.438 56.0955 8.57622C67.7599 16.7767 86.4977 17.7115 95.7816 7.95515C106.094 15.8334 123.388 15.4455 130.313 6.8605C139.248 12.7794 152.252 13.611 161.249 6.98719C174.638 14.5477 202.021 16.2401 202.997 2.06678C203.119 0.37641 198.996 -0.124463 197.526 1.23264Z" fill="#00B2A0"/>
</svg>
